<svg fill="currentColor" viewBox="0 0 506.781 506.781" xmlns="http://www.w3.org/2000/svg">
<g transform="translate(1 1)">
	<g>
		<g>
			<path d="M207.373,335.114h8.982c5.389,0,8.982-3.593,8.982-8.982s-3.593-8.982-8.982-8.982h-8.982
				c-5.389,0-8.982,3.593-8.982,8.982S201.984,335.114,207.373,335.114z"/>
			<path d="M252.286,406.974h8.982c5.389,0,8.982-3.593,8.982-8.982s-3.593-8.982-8.982-8.982h-8.982
				c-5.389,0-8.982,3.593-8.982,8.982S246.896,406.974,252.286,406.974z"/>
			<path d="M462.475,81.809c20.66-13.474,35.032-35.93,41.319-66.47v-1.797c0-1.797-0.898-5.389-1.797-7.186
				s-2.695-2.695-5.389-3.593c-10.464-2.415-92.32-19.236-126.673,49.673c-4.551-15.117-11.232-30.564-20.639-46.08
				c-2.695-3.593-8.084-5.389-12.575-2.695c-3.593,2.695-5.39,8.084-2.695,12.575c19.624,32.24,26.472,64.041,26.528,92.648
				c-5.225-7.509-11.637-13.632-19.342-18.093c-18.863-10.779-44.014-13.474-71.86-6.288h-0.898
				c-4.491,0.898-7.186,6.288-6.288,10.779v0.898c1.797,8.982,7.186,35.032,31.439,50.302c9.881,7.186,24.253,10.779,39.523,10.779
				c7.001,0,14.007-0.761,21.746-2.031c-3.332,13.64-7.73,25.724-12.098,35.727c-0.641,0.93-1.078,1.935-1.324,2.969
				c-5.217,11.492-10.217,19.925-13.092,24.415H176.215c-5.414-8.547-18.623-31.762-26.219-63.265
				c7.81,1.356,15.084,2.184,22.345,2.184c15.27,0,28.744-3.593,39.523-10.779c23.354-15.27,28.744-41.319,30.54-50.302v-0.898
				c0.898-4.491-2.695-9.881-7.186-10.779c-26.947-7.186-52.098-5.39-70.961,6.288c-7.625,5.382-14.354,12.333-19.851,20.851
				c-0.424-29.365,6.101-62.2,26.139-95.406c2.695-4.491,0.898-9.881-2.695-11.677c-4.491-2.695-9.881-1.796-12.575,2.695
				c-8.677,14.312-15.047,28.566-19.555,42.555C101.018-16.903,18.337,0.37,7.963,2.764C5.268,3.662,2.573,5.458,1.675,7.255
				s-0.898,4.491,0,7.186v1.796c6.288,30.54,20.66,52.997,42.218,66.47C58.265,91.69,76.23,96.181,96.889,96.181
				c9.143,0,19.241-0.956,30.283-3.201c-2.484,30.885,2.691,59.099,9.909,81.966c-6.476-2.783-13.463-5.06-21.151-7.504
				c-9.854-20.716-23.957-34.582-41.497-40.721c-18.863-6.288-41.319-2.695-66.47,10.779l-1.797,0.898
				c-4.491,1.797-6.288,7.186-4.491,11.677c0,0,0.898,0.898,0.898,1.796c2.695,8.084,11.677,29.642,35.032,38.625
				c7.186,2.695,15.27,4.491,23.354,4.491c14.21,0,29.977-3.895,47.298-12.397c17.014,5.12,29.158,9.504,38.764,18.568
				c2.982,6.698,5.906,12.472,8.478,17.184H63.654c-5.389,0-8.982,3.593-8.982,8.982v44.912c0,5.39,3.593,8.982,8.982,8.982h28.145
				l28.444,170.667h-20.66c-2.695,0-5.389,0.898-7.186,2.695c-1.797,2.695-2.695,5.39-1.797,8.084l8.982,35.93
				c0.898,4.491,4.491,7.186,8.982,7.186h287.439c4.491,0,8.084-2.695,8.982-6.288l8.982-35.93c0.898-2.695,0-6.288-1.797-8.084
				c-1.797-2.695-4.491-3.593-7.186-3.593h-20.66l8.49-50.939c0.314-0.908,0.493-1.895,0.493-2.956l19.462-116.772h28.145
				c5.389,0,8.982-3.593,8.982-8.982v-44.912c0-5.39-3.593-8.982-8.982-8.982h-92.336c2.496-4.522,5.356-10.092,8.294-16.573
				c9.53-10.144,21.573-13.824,38.475-18.891c17.7,8.068,33.789,12.11,48.261,12.11c8.084,0,16.168-0.898,23.354-3.593
				c23.354-8.982,31.439-30.54,35.032-38.625c0.898-0.898,0.898-1.797,0.898-1.797c1.797-4.491,0-9.881-4.491-11.677l-1.797-0.898
				c-24.253-13.474-46.709-17.067-66.47-10.779c-16.985,5.095-30.752,18.23-40.555,38.625c-8.057,2.558-15.356,4.908-22.093,7.803
				c7.13-22.588,12.27-50.392,10-80.836c10.613,1.976,21.099,2.969,31.09,2.969C429.24,96.181,447.205,91.69,462.475,81.809z"/>
		</g>
	</g>
</g>
</svg>
