<?xml version="1.0" encoding="UTF-8"?><svg id="b" xmlns="http://www.w3.org/2000/svg" xmlns:xlink="http://www.w3.org/1999/xlink" viewBox="0 0 241.127 241.1293"><defs><clipPath id="d"><circle cx="120.5633" cy="120.4445" r="74.3131" fill="none" stroke-width="0"/></clipPath></defs><g id="c"><path d="M120.5639,0h0C54.1606,0,0,54.1575,0,120.5639s54.1606,120.5654,120.5639,120.5654,120.5631-54.1583,120.5631-120.5654S186.9718,0,120.5639,0M120.5639,233.9807c-61.9792,0-112.5264-50.5479-112.5264-112.5242S58.5847,8.9354,120.5639,8.9354s112.5264,50.5471,112.5264,112.5211-50.548,112.5242-112.5264,112.5242Z" fill="#007a49" stroke-width="0"/><g clip-path="url(#d)"><path d="M207.8083,124.8632h-32.3915c-1.743,0-3.3903-.8457-4.4058-2.2625l-45.966-65.4278c-1.0432-1.4552-2.679-2.2956-4.4813-2.2956s-3.4388.8403-4.4887,2.3053l-45.9522,65.4083c-1.0226,1.4266-2.6699,2.2723-4.4129,2.2723h-32.3915v-2.5607h32.3915c.9198,0,1.7888-.4464,2.3249-1.1938l45.9518-65.4083c1.5438-2.154,3.9388-3.3839,6.577-3.3839h0c2.6382,0,5.0325,1.2298,6.5696,3.3741l45.9656,65.4278c.529.7376,1.398,1.184,2.3178,1.184h32.3915v2.5607Z" fill="#007a49" stroke-width="0"/><path d="M172.6685,129.9917c-2.2622,0-4.391-1.1031-5.6956-2.9526l-45.4124-65.6852c-.2264-.3208-.592-.5105-.9967-.5105h-.0003c-.4047,0-.7706.1897-1.0041.5202l-45.3982,65.6654c-1.3137,1.8623-3.4701,3.0213-5.7131,2.9627l-34.748-.0458.0034-2.5607,34.7483.0458c1.4761-.0445,2.7831-.6964,3.6099-1.8683l45.3982-65.665c.716-1.0152,1.8737-1.6153,3.1035-1.6153h.0003c1.2302.0003,2.3875.6004,3.0965,1.6055l45.4121,65.6849c.8198,1.1621,2.1166,1.8033,3.6029,1.8582l34.7483-.0458.0034,2.5607-34.7483.0458h-.0101Z" fill="#007a49" stroke-width="0"/><path d="M206.7301,134.9133l-37.365-.0071c-2.2625-.0003-4.3916-1.1048-5.6959-2.9539l-43.1057-62.3974-43.0987,62.3873c-1.3107,1.8592-3.4401,2.9637-5.7027,2.964l-37.365.0071-.0007-2.5607,37.365-.0071c1.4316-.0003,2.7784-.6988,3.6032-1.869l44.1452-63.9022c.4785-.6921,1.6288-.6921,2.1072,0l44.1523,63.9123c.8177,1.1601,2.1648,1.8585,3.5965,1.8589l37.365.0071-.0007,2.5607Z" fill="#007a49" stroke-width="0"/><path d="M205.6189,140.0014l-39.7067-.0118c-2.2632-.0007-4.3927-1.1058-5.6963-2.9556l-39.6525-57.5425-39.6447,57.5314c-1.311,1.8609-3.4405,2.9661-5.704,2.9667l-39.7067.0118-.0007-2.5607,39.7067-.0118c1.432-.0007,2.7791-.6995,3.6035-1.87l40.6916-59.0503c.4778-.6934,1.6308-.6934,2.1086,0l40.699,59.0614c.8171,1.1594,2.1645,1.8582,3.5961,1.8589l39.7067.0118-.0007,2.5607Z" fill="#007a49" stroke-width="0"/><path d="M164.4549,145.4002c-3.6965.0003-7.1474-1.8222-9.2314-4.8758l-34.6601-52.0501-34.652,52.0379c-2.0917,3.0651-5.5423,4.8879-9.2385,4.8879h-.001l-39.5999-.0027v-2.5607l39.5999.0027h.001c2.8495,0,5.5089-1.405,7.1151-3.7585l35.7096-53.6263c.4751-.713,1.6564-.713,2.1315,0l35.7177,53.6384c1.5981,2.3417,4.2585,3.7467,7.108,3.7464l39.5999-.0027v2.5607l-39.5999.0027Z" fill="#007a49" stroke-width="0"/></g><circle cx="120.5635" cy="123.7337" r="10.4451" fill="#007a49" stroke-width="0"/><path d="M118.846,171.9718h-2.7757s-.6171-2.8106-3.6147-7.6058c-2.9976-4.7951-8.5509-7.0528-8.5509-7.0528,0,0-9.7834-3.5891-8.1067-12.2194,1.6767-8.6303,10.08-9.5285,14.4004-7.9097,4.3203,1.6188,6.2015,6.0894,6.3651,7.7726l2.2825,27.015Z" fill="#007a49" stroke-width="0"/><path d="M122.281,171.9718h2.7757s.6171-2.8106,3.6147-7.6058c2.9976-4.7951,8.5509-7.0528,8.5509-7.0528,0,0,9.7834-3.5891,8.1067-12.2194-1.6767-8.6303-10.08-9.5285-14.4004-7.9097-4.3203,1.6188-6.2015,6.0894-6.3651,7.7726l-2.2825,27.015Z" fill="#007a49" stroke-width="0"/><path d="M199.8098,71.7065h0c.2401.0759.5104.151.7468.2239.3094-.246.8559-.6208,1.3124-.816,0,0-.0184.21.232.2667.0045.1074-.0095.3314-.0235.4234.2011.1606.397.3689.5981.5288.341.0228.9788-.1186,1.3397-.1186.1318.1318.0449.5199.0802.6231-.0133.0133-.9839.0184-1.107.0588-.4492.1502-.4588.5061-.2401.7697-.0228.1096-.2091.1686-.2327.2754-.0956.2305.0237.2938.1635.4257.6703.6113,1.9643,1.0172,2.393,2.0232.0449.618-.2424.5702-.4831.7661-.1599.0884-.4095.0884-.6386-.2232-1.7764-1.1755-3.0249-2.8502-4.1501-3.8961-.1916.0095-.3285-.0133-.5193,0,.1282.2291.305.5516.4279.85.7843,1.118,1.6808,2.2265,2.7656,3.3453,1.3168.9029,2.8289,1.814,4.151,2.7243.3454.3462.7512.7218,1.0163,1.1254.1952.4287.0133.4803-.3505.3439-.3558-.1347-.794-.2895-1.1762-.5981-1.1571-.9338-2.6567-2.0194-3.9234-3.1478-1.3625-1.2138-2.7692-2.4966-3.6398-2.5498-.6745-.0884-.9206.151-1.0347.6592-.0869.57.1193,1.0061.4382,1.1254.1716.1436.1451.3911.1362.6201-.0044.3543-.1597.5119-.5294.4272-.305.0487-.4044-.0228-.7056.0207-.3638-.084-.738-.235-.9471-.4478-.4059-.4816-.7792-1.0355-1.1534-1.5495-.0412-.0508-.1495-.1024-.1908-.1525-.6061-.8543-1.2218-1.6336-2.1461-2.2125-.7343,2.4872.5929,3.8593,2.7339,4.5149.324.3145.2777.4913-.0412.7307-.9391.3432-1.6174.7828-2.1823,1.2808-.3145.6592-.5702.5266-.7705.2857-.2916-.7284-.8469-1.6159-1.2889-2.4215-.0184,1.1393-.0685,2.4445.0081,3.4151.3425,1.1667,1.2168,1.2087,1.9871.7196,1.3765-1.205,2.6846-2.2736,3.6089-2.538.2548-.1231.3962-.0664.5325.2363.738.9575,1.7367,1.8847,2.9482,2.8185.7696.1532.8927-.173.7284-.7291-.559-.8293-1.224-1.3986-1.9171-1.8434-.2836-.1745-.5649-.4376-.7386-.6239-.2048-.3689-.0907-.4486.2504-.3727.3373.0472.5251-.0228.816-.0323.5237-.0848.6561-.2894.8927-.481-.0089-.6628-.095-1.2145-.2496-1.6468-.1923-.4581.1081-.57.5325-.2851.5649.481,1.1578,1.0865,2.0592,2.2758,1.563,1.691,3.2664,3.3084,5.7639,3.9801.9295,0,1.0473-.5442.8234-1.255-.9279-1.1239-2.0497-2.1647-3.0704-3.265.0596-.0478,1.9915-.1863,2.7758-.0383,1.048.1732,2.1005.1864,3.1125.2616,1.0753.2717,2.0681.4205,2.879.3166,1.0568-.2371.989-.7261.7003-1.2645-1.4663-1.8928-3.6266-3.1759-5.5805-4.4177-.1686-.1641-.0861-.3291.3373-.3822,1.4023.5966,2.7517,1.0157,4.0044,1.0952.3926.0662.6887-.0406.8566-.534-.0353-.9575-.3373-1.2608-.5516-1.6578-.232-.2085-.4184-.1106-.4596.0713.0089.1923,0,.3536.0089.5444-.8065-.0891-1.5857-.1436-2.3871-.2284-.8927-.243-1.7404-.4346-2.6389-.6753-.2453-.2447-.4095-.6018-.5457-.9892-.492-.324-.3741-.1643-.4604-.2261-.246.2665-.4374.5789-.6613.8462,0,.1054-.0089.2144-.0089.316.0501.1413.1193.2843.1686.4257,0,.1024-.0089.2187-.0089.3255-.3505.006-.9206-.2974-1.3897-.4757.137.7527.5789,1.1121.8564,1.4148-.4691-.0434-.9744-.1267-1.453-.1679-.1379-.1252-.2416-.2578-.3786-.3837-.0869-.5554-.5649-1.1387-.6282-1.3803,0-.1155.0272-.2091.0272-.3284.4-.4044.738-1.7419.8515-2.7523-.1134.0192-.2593.0442-.3786.0626-.6377.5353-.9427,1.1135-1.1703,1.7057-.218.2174-.4418.2269-.6599.3697-.1097.1341-.1827.2386-.2923.3778-.2143.2048-.5554.0465-.3557-.2143.0913-.159.2195-.3026.3373-.4941.1413-.2253.1959-.5973.2511-.9435-.1959-.0736-.4006-.0979-.4604-.0412-.137.2688-.3107.5133-.4698.6996-.8382.4634-1.7868.9184-2.1632,1.2212-.2606.2011-.5288.6135-.1002.8632M206.8493,77.6935h0c-.3653-.0567-.676-.0655-.9626-.0567-.0774-.1112-.1591-.2231-.2371-.3344.0744-.0846.1546-.1694.229-.2489.0317-.0928.073-.2011.1083-.2938.1694.0044.3109.014.4788.0192.1643.1582.3602.3505.5237.5641-.0265.137-.0818.2527-.14.3505ZM211.8657,75.5091h0c.4006.0846.9243.4257,1.3978.8455.073.1068.1415.2578.2048.3689.1643.1783.3873.3831.5516.5605.1775.3579-.1134.3911-.3145.5171-.9243.0848-2.7605-.1775-4.0869-.2394-.24,0-.3145-.1525-.1413-.3668.1768-.1281.4065-.2481.5884-.3682.1134-.0802.2365-.1605.3543-.2401.2069-.0626.4154-.1252.6208-.1914.2997-.2312.5774-.5671.8249-.886ZM208.0838,73.8718h0c.1597-.078.324-.1531.4875-.2282.1584-.0362.341-.098.3919-.0273.3822.084.6834.3352.9875.5782.1003.0802.1916.2327.1415.3122-.0486.084-.2371.0368-.2688.0656-.0273.0317-.4729-.0789-.5193-.0567-.0449.0191-.2775.0095-.405-.0184-.0869-.07-.1599-.1451-.2416-.2181-.2555-.0198-.5465-.0345-.6842-.0759.0376-.1104.0692-.2231.1106-.3314ZM207.5873,75.0009h0c.4323.0323.9522.1038,1.4346.1774.2821-.07.5053-.173.783-.243.1827-.0133.3336.0339.475.07.1267.0567.1959.1597.1959.3278-.0501.078-.2511.4021-.4979.3587-.1546.0434-.2902.0935-.4448.1362-.2483.2606-.5199.5089-.7792.7498-.1244.1635-.4065.2711-.8625.2711-.6878-.1201-1.1887-.3824-1.3382-.6282-.0781-.0081-.1658-.2527-.0465-.361.1231-.1717.3278-.3955.4471-.6003.2092-.1074.4192-.151.6335-.2584ZM206.9671,73.6663c.218.0662.3689.1237.4095.2305-.0501.1561-.2453.2128-.4788.3124-.1635.1428-.3631.4101-.5273.5509-.1149.1112-.2195.3122-.3329.6945-.0958.1489-.3137.2756-.5015.3484-.3778-.475-.861-.8058-1.389-1.1415-.2511.0368-.4611-.1142-.6239-.4803,1.1607-.1863,2.3737-.5053,3.4439-.5148ZM194.8251,73.4343c1.0789.0839,2.1543.1068,3.2385.0979.2364-.0626.4287-.1576.2652-.5361-.0546-.2342.1038-.364.3873-.3507.5922-.0404,1.1844-.0449,1.7772-.0846-.106-.1768-.2379-.3528-.4338-.489-.6599-.0943-1.4295-.1032-1.8766-.2195-.4507-.3323-1.0533-.5024-1.599-.7329-.9706-.0846-2.0372.2305-2.935.934-.0501.1444-.0228.3593-.0361.5353.0907.1231.1775.2394.2637.3558.3204.1546.6334.3344.9486.4898ZM172.5384,53.0176c2.1094-.9124,4.1089-1.9811,5.7264-3.6199.4103,2.0159-.5457,5.0856-1.3942,7.8755.2143,1.3811,1.1216,2.3185,2.7339,2.8098.5554.4323,1.6402.0736.9338-.5391-.1958-.2931-.3189-.5833-.419-.8765-.3786-.8948-.341-1.8037-.8012-2.7301-.3323-1.1254-.4869-2.2699-.2652-3.4661.2688-1.2299.2967-2.1211.0825-2.6639,1.7138.6629,3.8872.9899,5.9597,1.2035.6157.1186.8655-.2373.6386-.9097-.4471-.8631-1.4444-1.6461-2.5285-2.1042.1038.2887.2085.5833.3122.8721.0922.6083-.218.7652-.9294.6038-.637-.1827-1.3699-.2709-2.2176-.2445-.6201.0096-.7343-.5501.0501-.9427l6.6793-5.0274c.97-.85.9568-1.8058-.3152-2.5623-.9374-.3536-1.4538-.2468-1.3382.5362.1496.6908-.1193,1.037-.4699,1.4839-1.7808,1.8428-3.7002,3.349-5.663,4.755-.6106.6239-1.2851.9744-2.0828.7218-1.2301-.1032-2.3016-.3712-3.3483-.6614-1.2453-.662-1.5679,1.1004-.5833,1.6933.3477.0994.9435.0795,1.6948-.0015.6937-.0751,1.3323-.0332,2.0327.0066l-.5973.3676-2.9887,1.5863c-1.901.8853-2.9947.2386-5.0577-.606-.36.5884.3875,1.059,1.0025,1.7971.7417,1.235,1.6939,1.3559,3.1529.6429ZM142.4426,36.7357c-.1422.9141-.0914,3.0896.2902,3.5603.5383.6429,1.2174.7172,1.7013.0412.291-.7976.0398-1.5319-.2923-2.2478-.2999-.654-1.0525-1.3022-1.6992-1.3538ZM139.769,34.0659h0c-.2688-.098-.5457-.1959-.8145-.2895-.9141-.0744-1.7802-.1591-2.3737.0501-.1246.3373-.5089.8132-.8942,1.1474-.106-.0353-.2371.1238-.4302.1864-.1768.0626-.3579-.0133-.5251.0279-.1481-.148-.2629-.3196-.4029-.5118,0-.1348-.0597-.33-.0597-.4677-.1112-.187-.1723-.3291-.2821-.5156-.1214.0317-.2327.1112-.3579.1495-.2593.6379-.4588,1.216-.6165,1.8376-.0876,1.1982.1901,1.725,1.1261,1.8464.4685-.0051.9494-.1214,1.2278-.492.1819-.2208.4412-.6584.5656-1.3132.14-.3291.2739-.6282.8028-.6901.3564-.106.7263-.1339,1.0842.0051.0831.2232-.0383.4892.8153.54.1569.0051.3661-.1075.5509-.0362.0324.1775.2048.4898.2371.6665.0546.1864-.0287.4448-.0839.7276-.2644.3226-.534.7564-.7932,1.0791-.1745.3358-.4588.4602-.8566.4602-.2275-.0095-.2445-.036-.3947-.2011-.0552-.1561-.0641-.3388-.1193-.5029-.148-.2615-.3748-.526-.7601-.6622.1201.3189.2769.6753.3889,1.0127.1996.5884.3204,1.1982.584,1.6667.3101.4551.7917.6142,1.6034.279.2784-.2297.5332-.4522.7085-.7062.9097-1.3714,1.7625-3.6516,1.7286-3.592.2174.1584.5326.3373.7557.5008.3109.0133.584.0679.8949.0825.1937-.1444.3145-.2872.5097-.4323.2637-.0465.4683-.1127.7276-.1658-.07-.2591-.0928-.5818-.1628-.8462-.6216-.0434-1.2418-.0626-1.8634-.106.1164-.165.1959-.2777.3057-.4456.511-.0531,1.0531-.098,1.5577-.1466.1988-.1944.2974-.4683.0928-.9126-.2542-.2011-.5097-.4765-.7601-.6776-.0228-.2327-.07-.4662-.0928-.6937.6863.092,1.3153.173,1.9974.2658-.0051-.5243.0457-.9471.0368-1.4708.0979-.176-.0876-.2606.014-.4374.2511-.2018.7468-.5332,1.0016-.7343.3566-.1864.6481-.3955.8058-.7792.2784-.316.2041-.6371-.4175-.9044-1.1806-.0929-2.5203-.0501-3.2996.1641-.2122-.0095-.3337.0715-.4662.1474-.2468.2172-.5288.5429-.7756.7623-.3424.2379-.4168.1318-.4676-.0243-.1348-.3911-.0833-.805.0287-1.1976.2953-.5613.7276-.7328,1.3242-.7512,2.5262.0501,5.0835.419,7.6649.939.6952.3477,1.3853.6732,1.9782.7917.6688.0184,1.048-.3741.7424-1.0141-.7181-.8492-3.3409-1.1077-6.8068-1.0857-.7659-.0884-.7792-.4154-.5937-.8109.129-.1546.2637-.3041.3883-.4588.9788-.2091,1.9238-.1738,2.8694-.1428.6865-.1597,1.4222-.2711,2.1042-.4353.1614-.2136.2784-.4809.4435-.6945-.1385-.2762-.2253-.5605-.3697-.8316-.2557.0155-.5061.0796-.7557.098-.4721.2842-.9958.5368-1.4731.8263-.5567.1775-1.0237.1923-1.4782.1576-.542-.0368-.6083-.2739-.2828-.6201.7041-.7963,2.2104-1.6123,3.7261-2.4312.3697-.2932.6709-.5922.7504-1.2403-.1017-.4382-.2231-.9854-.4131-1.0084-.3881.2011-.7822.4383-1.177.6402-.6341.3763-1.154,1.2446-1.8758,1.5863-.3617.1569-.7506.2232-1.1085.3822-.8758.3579-1.8671,1.2919-2.9835,2.4268-.0133-.3594-.0891-.7343-.1113-1.0937.246-.3572.5053-.7225.7409-1.082,0-.209.0097-.3667.0097-.5766.1436-.1768.2821-.4036.4162-.5782-.0125-.2113-.0508-.4441-.0641-.6533-.2917-.3889-.5973-.7659-.9964-.967-.3433-.098-.537.0228-.5886.3122-.2496.6997.2549,1.75.2225,2.4128-.0457.2578-.1893.3816-.4677.3816-.8801-.1768-1.4729-.1054-1.9562.0243-.3889.1495-.472.3726-.2261.6753.2549.2674.8154.5981,1.0562.576.2409-.0192.4264.1766.453.4042.0339.2327.025.5922.0112,1.0186-.0112.4243-.1496.6954-.5893.6239-.8985.1208-2.3126.0715-4.1053-.1201-.4035-.1474-.7328-.2762-1.0568-.4257-.973-.2695-1.9827-.4655-2.8644-.9457-.3373-.103-.6444-.0713-.8853.2644-.0787.3771-.1796.4757-.1288.8831.1804.405.7453.9456,1.1209,1.2711.1246.1134.1246.2873.2498.3985.2275.1032.6157.2379.8676.2652.3608-.1119.7225-.2284,1.0746-.3359l4.31-.0508c.3012.0038.4683.0508.2688.6121-.2231.1068-.464.2276-.6819.3306-.1893.07-.3278.2659-.3653.7166-.0288.1548.3107,1.3044.2688,1.459-.9405.0222-1.6491.2726-1.8538.4736-.2821.3733-.2917.5877.2312.7785.6216.1413,1.2838.1229,1.7705.2489.1481.0884.3425.1827.4641.3962-.0148.1643.0552.4935-.0324.6592-.3071-.0493-.8625-.2142-1.2109-.2806-.2821-.0846-.5833-.0398-.6804.2806.0287.1563-.0281.3293-.0038.4892.2769.1207.6062.3689.8794.6193.1627.5376-.0603.4994-.3012.5605ZM142.7349,29.5732h0c.5135-.7248,1.1121-1.1019,1.831-1.2557.2784-.0692.6297-.0436,1.1946.0986.3196.0884.3748.218.1812.4287-.6216.4404-1.6829.8352-2.6227,1.2506-.1391.1546-.2466.1112-.4911-.037-.2828-.218-.2085-.3822-.0929-.4852ZM145.0056,24.2577h0c.0457-.1199.1724-.2275.3889-.3255.6349-.7792,1.2881-1.4133,2.122-1.9892.1914-.0391.5803-.0133.6635.1789-.0419.1364-.106.3653-.1495.4987-.7506.7608-1.2411,1.4097-1.6999,2.2345-.0457.1775-.1385.4146-.1901.5929-.2312.0516-.6901.0169-.9264.0228-.1532-.1009-.0928-.064-.2217-.2459-.0611-.4059-.0928-.8551.0133-.9672ZM144.3516,25.0142c.1348.1164.2688.2195.4036.3359.07.1907.1155.4073.1155.6119.0148.2689-.1112.294-.2216.3255h-.3617c-.2047-.0603-.2275-.1996-.246-.3498-.0044-.2652-.0044-.5266-.0139-.7925.1119-.0412.218-.0846.324-.1311ZM92.8477,29.5099h0c1.0746.5074,1.982-.5171,1.4678-1.4524-.4205-.7329-1.336-.8397-1.8464-1.4642-.3189-.2195-.1178-.4404.246-.5922.1916-.1421.3056-.1827.442-.1163.1878.1296.3925.349.5472.4852.1362.0273.2143.0222.3462.0501.0861.1775.2555.3594.3468.537.2631.3549.7329.4816.9752-.1717.0317-.4315.0634-.9353.095-1.3633.0406-.2092.1318-.5251.2695-.5928.2092.0994.2946.349.313.5404-.081,1.5717-.5685,2.9461-.5103,3.8189.1193.2548.3337.7652.7246.861.224-.0465.5201-.176.7889-.4994.3689-.4374.7284-1.1658,1.1341-1.8559.4516-.7469.565-.5362.47.2982-.1599,1.526-.492,2.9115-1.0341,4.1163-.8352,1.0679-1.504,2.3701-1.9606,4.31-.268,1.5224-.5516,3.2466-.1643,4.615.1643.4994.5201.5892,1.0666.2652.1561-.2011.1781-.397.3329-.5966.4367-1.3014.511-2.6227.6922-3.6501.3367-2.7973,1.004-5.21,1.8052-6.7376.5613-.7388.9841-1.3883,1.5489-1.5482.3056-.246.5641-.299.5325.324-.1083.783-.4507,1.5666-.8978,2.3555-.2777.0184-.5503.0412-.8293.0662-.5089.059-.4507.4139-.4956.8234.0634,2.619.1679,5.1607.3594,7.6619.1324.28.2054.4721.3335.6068.3094.1864.4774.2659.6415.0929.7564-1.269,1.6358-2.9579,2.0829-4.7417.1959-.2843.3873-.4103.5871-.1701.3557.4095.7438.9097,1.0981,1.3139.2511-.0087.478-.0036.7394-.0133.4044-.4852.7322-1.0958.8602-2.0564.0229-.4403-.1827-.7481-.592-.8278-.3875-.0662-.7792-.07-1.1667-.1347-.3557-.1496-.324-.3226-.2511-.5186.1819-.2606.3329-.4338.4338-.7276.0766-.5649.1643-1.2823-.0279-1.8251-.3145-.3726-.6018-.3388-.9524-.1465-.6607.3343-1.3249,1.1091-1.99,1.674-.2202.1392-.302.4898-.1974,1.0599.246.2931.6341.7637.9427.9972.1827.3778.1341.5125-.0169.7468-.2608.6865-.6466,1.3714-1.1903,2.0579-.1178.2054-.2872.1959-.4088-.0332-.1597-1.423-.1745-2.7663-.1229-4.6989.5317-.5886,1.5717-1.2551,2.4452-1.9069.2828-1.0937.3557-3.2347.1281-3.449-.7468-.4987-1.8272.1959-2.7015,1.2948-.2422.3748-.5008.7483-.8012,1.0952-.2291.1914-.302.3079-.3786-.165-.0184-.8058.6098-2.0423,1.1019-3.125.0463-.1686.0279-.3462.0279-.5383-.0317-.1341-.0279-.33-.1229-.3382-.0958.0891-.3735.3124-.5281.2756-.2792-.0347-.4611-.1826-.3329-.4634.7969-2.4031,1.49-4.6702,1.3898-6.7448-.0649-.467-.3786-.6718-.8942-.4537-.9207.2673-1.7168,1.1047-2.5233,2.2853-.3373.4537-.3462.2806-.3557-.0184.1097-.7881.3557-1.7815.5884-2.6307-.0368-.8596-.1605-.923-.3653-1.1622-.268-.1017-.5552-.2424-.8248-.3403-.5237-.28-.8198.1959-.6282.7939.3593,1.5099.2739,3.4109.2739,5.0524-.4604.7041-1.012,1.339-1.6734,1.7957-.0317.0434-.1451.0662-.254.008-.1694-.7225-.4655-.8675-.8714-1.1231-.2054-.0979-.6561-.3115-.7696-.2312-.0229.1201-.3226.6982-.1643.9839.1878.143.57.8293.6709,1.1233-.0051.173.0486.1635-.3285.7417-.1914.1214-.3424.2195-.5287.3403-.5797.3549-.643.7931-.456,1.269.3646.8079.7248,2.0158,1.3081,2.4879ZM103.0123,32.7946h0l.4566-.0618v.3027l-.1237.4257-.3329.2238-.2232-.5516.2232-.3388ZM98.387,20.4309h0c.2275-.137.3932-.0353.419.21-.3314,2.4982-.9332,3.9359-1.5569,4.8396-.2056.2401-.3513.1996-.397-.0582-.1628-.9663-.0774-2.1933-.2092-3.2009.4788-.6495.9752-1.2815,1.7441-1.7904ZM96.7159,26.566h0c1.0436-.0979,1.571-.2011,1.7123-.299.0508.0979.0914.1966.1599.299-.5326.629-1.0975,1.2639-1.6358,1.8936-.0634.0833-.0861.1738-.1495.2527-.0818.0184-.1415-.0148-.1502-.0531-.1282-.5302-.0148-1.3802.0634-2.0932ZM95.5993,23.3121c.2276-.0133.4192.0148.3469.3086-.1142.5738-.4566.9744-.7659,1.3485-.218.3374-.2777.9473-.5884,1.4363-.0627-.0081-.1142-.0929-.1717-.168-.0192-.0588-.0781-.1252-.0641-.1649-.0184-.5112-.0184-1.0937-.0368-1.6026.464-.6157.8758-.9531,1.28-1.1578ZM61.8511,41.3035h0c.1679.1686.2092.6106.0545.8911-.3646,1.1667-1.1887,2.3046-2.0681,3.3866-.1605.6362.1599.7755.8287.5744,1.062-.7225,1.9826-1.4059,2.5881-1.993.2407.1548.4234.4442.5376.8581.1149.4272.3189.9442.2828,1.3397-.0412.4308-.2011,1.0503-.3056,1.4708-.1047.3858-.4228.5141-.6747.8263-.151.2409-.0986.386.2054.6282.1548.5966-.3784,1.6203-1.0752,2.6838.2422,1.1851.8477,2.1912,1.2166,3.3445.6783,1.0311,1.3898,1.283,2.018.6584.4338-.7343.0649-1.2823-.5332-1.7815-.7417-.5827-1.5393-1.0592-1.9414-2.3193-.1864-.1775.3337-.5201.6429-.8073.3558-.6216.7064-1.4097,1.0533-1.8633.2364.0184.4691.0846.7018.103.7012-.2195.8198-.9272.6688-1.7992-.2549-1.2293.265-2.8187.6245-3.0146.2143.3116.4243,1.582.5237,2.4813.0692.551-.2997.7697-.2961,1.0091-.1495.7402.0273,1.526.2364,1.736.2889-.0434.5569-.1091.7904-.2166.1996.221.1546.7948.0943,1.5357.1142.6053.2637,1.0539.9206.9706.3057-.1112.6379-.5539.7513-1.213.3063.3676.6061.7756.9169,1.1417.0545-.1798.0899-.4014.1546-.5834.2181-.0949.5104-.1199.4831-.6599-.4101-.4441-.8388-1.2682-.6929-1.6556,1.2535.2879,2.5334.3705,3.6404.2726.5201-.0508,1.0886-.1392,1.2035-.5214.1311-.4148-.26-1.1887-.607-1.6654-1.6939-1.8301-3.4255-4.0374-5.0333-7.4614-.2923-.3441-1.062-3.0404-2.5755-1.669-.8242,1.8236-1.4856,4.3536-2.4054,6.2662-.224-.3005-.615-2.3147-.6017-4.1251.5884-1.6292.9073-1.6388,1.0074-1.9636.3137-1.0731-.4742-1.4059-1.2984-1.3964-.5015.0523-.8344.5457-.9302,1.0178.3232.4006.3321.7564.1863,1.3183-.2415.4634-.3145.1974-.4456.1599-1.235-3.5875-2.4327-4.2305-3.5993-4.1524-.8574.1142-1.9776-.0413-1.7817,1.1203.2644.2142.5237.4285.783.6451.9854.7077,2.4289,2.5962,3.7502,4.4219ZM67.4419,39.4144c.291-.1959,1.2845.9509,1.8354,2.4945.5702.9575,1.3213,2.1461,2.0239,3.0888.6011.7978,1.2764,1.5224,1.7536,2.4408.1415.4706-.0677.7519-.5103.8448-.6828-.0133-1.258.0368-1.937.022-.1732-.1053-.1039-.8005-.3962-1.0444-.1275-.0647-.2085-.1068-.3005-.078-.1959.103-.5776.5833-.7196.8255-.1502.2564-.3048.2122-.3365.1349.0545-.584.1451-1.1865.1827-1.7698-.0973-.2092-.1142-.213-.2608-.2925-.2872.0265-.6878.0833-.9839.106-.0133-.7358-.0641-1.5584-.0774-2.2897.0907-.1106.2187-.1451.3771-.2564.106-.2895.1237-.6635.106-.9574.0089-.246-.3152-.4331-.6893-.3919-.4272.2254-.6599.5516-.8331.8403-.5795.5569-.7512,2.7745-1.3809,4.5958-.1318.1679-.341.2711-.6504.2806,1.2845-4.8808,2.2678-8.4462,2.7973-8.5942ZM31.7309,77.3481h0c.5871.0273,1.1534-.6812,1.8229-2.0622.0133-.8947-.4101-1.0444-.7379-1.3477,0-1.2322.0368-2.5617.0368-3.7923.9287.6754,1.7485,1.5393,1.7669,2.0467.1459.316-.0766.467-.2232.5334-.7828.1701-1.0981.5958-1.0797,1.0568.0861.3646.4699.5009.8839.7189,1.0429.5516,2.1004,1.1865,2.957,1.9562.3462.7659-.0317.7512-.8204.6576-.9928.1967-1.4304.5495-1.6624.7276-.1244.2394-.0419.6658,1.1482,1.3574.1009,1.1394.0362,2.3561.0863,3.3026.1281.2622.4735.2843.8528.0376.8374-.4515,1.0252-1.6321.7792-2.0939-.2327-.1959-.4655-.5171-.6165-.8544.0332-.3403.1009-.2555.1783-.3557.3881-.0449.6975.0154,1.0848-.0362.2496-.0751.5237-.2195.4736-.6474.0404-.4831-.2784-1.1827-.7925-1.7882-.0148-.1863-.0148-.3602.0994-.5046.8344.4478,1.8052.847,2.3104,1.5025-.0448,2.5903-.4883,4.7777-.8204,6.7891-.0051.2085-.0368.5833.036.7284.1878.372.8257.3822,1.5952.1959.4376-.2711.702-.7291.7299-1.4509-.1973-1.9598-.3616-3.9528-.5516-5.9075.4552.3122,1.0569.5317,1.4848.8911-.0457.6311-.1098,1.2741-.0818,1.9046.2777.5207.6916.7828,1.0289.6901.5015-.1916.4198-1.3618.7475-1.923.106.0281.2011.0133.2741.0884,1.2387,1.2521,4.215,2.6087,5.2527,2.4092-.2276-1.5453-2.8289-2.8003-5.199-4.2151-.2585-.2091-.1959-.419-.1643-.5877.3152-1.6741.6392-3.0139.2703-4.2172-.165-.5745-.5472-.6438-.8889-.6724-.6614.1885-1.2536.6024-1.6041,1.0148-.151.1658-.3145.0222-.3558-.0713-.4551-1.054.4287-3.519-.0986-4.7174-.2968-.246-.8441-.2054-.9169-.0545-.5237,1.3714-.4699,2.9247-.4869,5.0141-.0146.5237-.4242.6267-.8572.2667.0412-1.7102-.5516-3.2849-1.1394-4.355-.2916-.6231-.3005-1.5615-.0899-1.9437.8551-1.4701.7881-2.295.1172-2.6506-.3189-.0516-.5053-.1106-.9611.0751-.3735.3881-.0825,1.1666-.2048,1.8132-.6923-.0265-1.3308.2261-1.7263.9486-.534,1.2455-.3109,2.8591.2504,4.5627.2416.7748-.2092.6717-.5112.4573-.3056-1.5127-.5509-2.8568-.8889-3.4534-.4581-.7491-.7138-1.216-1.2654-1.9164-.2422-.8485.6003-2.1093,1.0702-3.0558.2422-1.2697-.4772-1.213-.6783-1.1445-1.1165.4353-.7925.8684-2.7111,2.1764-1.7411.3431-2.0188.4044-2.2779.6186-.3778.3962.0581.9759.1267,1.051.8749,1.0546,2.2927,1.5489,3.3356,2.4077.2276.1532-.0723,2.8872-.3373,3.3923-.5643-.7703-1.4082-1.4759-2.7068-1.6055-1.1747.0368-2.1491.6717-2.6654,1.9171,1.445.5133,3.2635.9619,5.3132,1.3058-.3101,1.6741-.3469,2.5469.0087,2.809ZM42.4611,74.2931h0c.305-.173.6386-.3005,1.0076-.0759.2092.1305.3358.3175.4287.7365-.056.808-.1827,1.7661-.2695,2.6389-.2873-.1745-.5687-.3608-.8522-.5347-.1546-.4006-.2777-.8064-.4006-1.2071.0353-.5184.0596-1.0406.0861-1.5577ZM41.363,72.9658h0s.1413.0148.2092.0679c.0184.2128.0279.4234.0184.6245-.0501.0081-.1415-.0095-.2365-.0317-.0412-.1377-.0692-.2356-.0861-.3932.0169-.1165.0449-.1996.095-.2674ZM41.3224,74.3748h0c.1356.1548.2682.3094.4044.467.0243.6812.0465,1.3964.0744,2.0776-.1827-.1413-.3653-.3145-.5472-.4537.0222-.6945.0457-1.3934.0685-2.0909ZM39.8819,74.4979h0c.2459-.0038.497-.0097.743-.0133.0958.5302.1422.989.0362,1.5577-.0265.0979-.1275.0545-.2033.0463-.2018-.0897-.3932-.2709-.5759-.4426v-1.1482ZM37.564,70.6445h0c.1635-.2202.2136-.1739.3278-.0943.4861.2527.9966,1.2771,1.4532,4.4293.0228.2312-.0913.3911-.1546.386-.6113-.3323-1.1586-.7291-1.5954-1.2329-.0949-.0789-.1914-.2269-.2923-.5156-.1303-1.2912-.0449-2.5867.2614-2.9725ZM35.8863,69.9005h0c.0546-.3439.1193-.7129.1739-1.0562.2769-.2585.5604-.2136.838.1068.2373,1.4164.0501,2.6544-.2777,3.0867-.3925-.3572-.5884-1.2881-.7343-2.1374ZM31.3082,65.88c-.0281-.1216-.0243-.2417.022-.3653.3005-.1104.6747-.0848,1.0385-.0406.1827.0317.3189.1642.397.3824.0404.0846.0457.4772.0353,1.0038-.1178.0133-.254.0228-.3822.0383-.3727-.3374-.7328-.6834-1.1106-1.0186Z" fill="#007a49" stroke-width="0"/><path d="M24.9594,126.4091c-1.5102.408-2.2161,1.2215-2.1178,2.4405.0452.5608.2215,1.0171.5281,1.3689l-.0112.0008c.1711.159.3535.2764.5479.351.194.0745.4034.1028.6278.0849.3289-.0266.6087-.1037.8393-.2315s.4165-.2952.5581-.5025c.0701-.1561.1555-.4038.256-.7431s.2055-.7656.3147-1.2785c.1197-.4767.2517-.8918.3963-1.246.1445-.3543.317-.6407.5177-.8601.445-.5479,1.1349-.8593,2.0699-.9346.4261-.0346.8491.0291,1.2687.1911.4194.1619.7881.3918,1.1055.6898.2167.261.4024.5791.5568.9542s.2496.7835.2852,1.2248c.0826,1.0246-.1132,1.8401-.5874,2.4467s-1.2521,1.0175-2.3337,1.2327c-.0125-.0595-.0237-.1299-.0341-.2119s-.0177-.149-.0219-.2015c-.0123-.0591-.0214-.1261-.0275-.2011-.006-.0745-.0154-.1415-.0275-.2011l-.0035-.0445c-.0241-.1112-.0454-.2336-.0637-.3676s-.0364-.2644-.0539-.3909c.5985-.1386,1.0404-.3755,1.3258-.7111.2852-.3351.4067-.7648.3645-1.2881-.0427-.5312-.1996-.9363-.4707-1.2152l.0112-.0012c-.3164-.2831-.6803-.408-1.0916-.3747-.2169.0175-.4047.0908-.5637.2202-.1588.1295-.2931.3081-.4028.535-.0704.1565-.1592.4042-.2675.7444-.108.3397-.2169.7627-.3266,1.2685-.1255.4992-.2685.9417-.4292,1.3272-.1609.3855-.3445.6994-.5508.9421-.2225.2286-.5119.4213-.8678.5779-.3564.157-.7812.2552-1.2748.2948-.5535.045-1.0704-.0192-1.551-.1907-.4804-.1724-.8951-.4134-1.244-.724-.2546-.2656-.4625-.6045-.6239-1.0167-.1611-.4126-.2625-.873-.3035-1.3814-.0439-.5458-.0031-1.0441.1222-1.4946.1257-.4505.3428-.8614.6515-1.2323.2962-.3401.6588-.6291,1.0874-.8668.4286-.2381.9423-.4263,1.5408-.5649l.2744,1.5812Z" fill="#007a49" stroke-width="0"/><path d="M27.4187,133.3217c.443-.0803.8749-.1266,1.296-.1382s.8241.0029,1.209.0437.7475.1066,1.0881.1973.648.1986.9226.3243c.5092.3268.9284.7256,1.2579,1.1957.3291.4704.5508,1.0192.6647,1.6465.1153.6349.1012,1.2302-.0418,1.7864-.1432.5558-.3963,1.0729-.7596,1.5504-.4242.4355-.9888.8335-1.6934,1.194-.705.3601-1.5002.6207-2.3861.7818-.9228.1674-1.7673.2098-2.5331.1278-.766-.0824-1.4138-.2581-1.9432-.5283-.5152-.3181-.9382-.7161-1.2689-1.1936-.3306-.4775-.5537-1.0337-.6688-1.6686-.1166-.6424-.1051-1.2411.0343-1.7964s.3938-1.0762.7631-1.5625c.4007-.4388.9467-.8335,1.6382-1.184.6913-.3501,1.4981-.6091,2.4211-.7764ZM27.7261,135.0157c-2.6207.4759-3.7737,1.5808-3.459,3.3156.3149,1.7348,1.7827,2.3647,4.4034,1.8893,1.3066-.2373,2.2475-.6311,2.8224-1.1815s.7835-1.2615.6253-2.1324c-.158-.8709-.6028-1.4634-1.3345-1.7764-.7317-.3135-1.751-.3514-3.0577-.1145Z" fill="#007a49" stroke-width="0"/><path d="M34.7513,141.9237l.4765,1.6311-6.2767,1.8335c-.9219.2694-1.5747.6162-1.9586,1.0412-.204.239-.3345.5079-.3918.806-.0577.2981-.0316.6345.0776,1.0092.1053.3601.2735.6549.5046.8843.2313.2294.4804.3872.7479.4734.2662.055.5839.0658.9534.0321.3693-.0333.7808-.1166,1.2344-.249l6.2767-1.8335.4765,1.6311-6.0065,1.7548c-.8139.2377-1.5487.378-2.2044.4209s-1.2034.0075-1.6432-.1062c-.4688-.1603-.8707-.4392-1.2061-.8376-.3351-.3988-.5953-.9147-.7806-1.5483-.1978-.6774-.2823-1.2877-.2535-1.8314s.1863-1.0217.4725-1.4334c.2914-.3668.7182-.7123,1.28-1.0366s1.2785-.6137,2.1499-.868l6.0714-1.7735Z" fill="#007a49" stroke-width="0"/><path d="M27.9191,156.7988l8.6114-3.4417-1.0693-2.6753,1.7036-.6807,2.7733,6.9392-1.7036.6807-1.0691-2.6753-8.6114,3.4417-.6349-1.5887Z" fill="#007a49" stroke-width="0"/><path d="M35.6289,162.1261l-4.3814,2.2585-.7787-1.5104,9.8732-5.0899.7787,1.5104-3.8714,1.9958,1.9082,3.7011,3.8712-1.9958.7787,1.5104-9.873,5.0903-.7787-1.5104,4.3814-2.259-1.9082-3.7011Z" fill="#007a49" stroke-width="0"/><path d="M49.7713,173.0878c.5735.7794.8091,1.5933.7069,2.4421l.0092-.0067c-.0691.8052-.444,1.612-1.1251,2.4205-.1149-.0924-.224-.1774-.3274-.2548-.1037-.0774-.2084-.1565-.3141-.2373-.0346-.0212-.0693-.0466-.1051-.0762s-.071-.055-.1051-.0766c-.0849-.077-.2123-.1744-.3822-.2914.8401-.9721.9134-1.9296.2198-2.8726-.974-1.3235-2.5246-1.2023-4.6515.3626-1.0697.7873-1.7542,1.5375-2.0533,2.2515s-.2086,1.3972.2716,2.05c.7248.9846,1.831,1.1399,3.3183.4646.02.0783.0402.159.0595.2427.0196.0833.0393.164.0597.2423-.0021.0479.0054.0962.0223.1445.0167.0479.0325.0945.0473.1399.0271.1382.0552.2714.0841.3993.0287.1278.0597.2585.0933.3926-.9779.4305-1.9053.582-2.7819.4538-.4781-.0674-.9061-.2186-1.2835-.453s-.7063-.542-.9865-.923c-.4047-.55-.6607-1.1162-.7679-1.6986s-.0595-1.1857.1426-1.8093c.1988-.5658.5198-1.1232.9629-1.6728.4432-.5495,1.0214-1.087,1.7346-1.6116.6707-.4938,1.3535-.8726,2.0485-1.1374.6948-.2644,1.3331-.4197,1.9142-.465.6378.0058,1.2329.1407,1.7858.4042.5529.2644,1.0204.6557,1.403,1.1757Z" fill="#007a49" stroke-width="0"/><path d="M49.0684,182.4055l-3.6617,3.3002-1.1376-1.2623,8.2515-7.4367,1.1376,1.2623-3.2352,2.9159,2.7877,3.0933,3.2354-2.9159,1.1376,1.2627-8.2513,7.4363-1.1378-1.2623,3.6617-3.3002-2.7879-3.0933Z" fill="#007a49" stroke-width="0"/><path d="M59.8242,184.7019l-7.7217,7.985-1.2136-1.1732,7.7217-7.9854,1.2136,1.1736Z" fill="#007a49" stroke-width="0"/><path d="M54.9966,195.348l-1.205-1.015,7.1572-8.495,1.3341,1.1241-2.0808,8.8277c.04.0337.0822.0595.1264.077l5.1992-6.1711,1.1792.9933-7.1572,8.495-1.4546-1.2252,2.0169-8.4551c-.0221-.0087-.0456-.0187-.0704-.03-.0252-.0112-.0485-.0212-.0706-.03l-4.9744,5.9043Z" fill="#007a49" stroke-width="0"/><path d="M64.114,199.6049c-.1515.1141-.3106.2465-.4769.3959s-.3266.2898-.4802.4209c-.122.0983-.2369.1923-.3441.2827-.1076.0899-.219.1861-.3349.2889-.0337.0221-.0674.0512-.1012.0874-.0337.0358-.0674.0649-.101.0874l-1.4194-.9746c.122-.0983.2467-.1969.3739-.296.1274-.0995.2521-.1982.3741-.296l-.0065.0092c.0506-.0475.1035-.0908.158-.1307.0545-.0396.1072-.0833.1578-.1303.3008-.2394.5991-.4784.8949-.7165.2956-.2386.5908-.4796.8855-.7231,1.0418-.841,2.0745-1.6724,3.0985-2.4938,1.0235-.8214,2.0625-1.6486,3.1168-2.4809l1.6978,1.1657c-.1919.6241-.3868,1.2523-.5847,1.8855-.1982.6328-.3995,1.2706-.6039,1.913-.2003.6361-.3995,1.2706-.5974,1.9038-.1982.6332-.3961,1.2594-.5941,1.8789-.1172.3564-.2304.7132-.3393,1.0708-.1091.3576-.219.7165-.3301,1.077-.0674.2177-.1378.4425-.2107.6744s-.1453.46-.2169.684l-1.4844-1.0196.79-2.2835-3.3214-2.2806ZM67.9932,200.3572l2.0073-5.6661-.1114-.0766c-.7583.6536-1.5196,1.3047-2.2839,1.9542-.7646.649-1.5258,1.3002-2.2839,1.9538l2.6719,1.8347Z" fill="#007a49" stroke-width="0"/><path d="M82.1408,209.7839c-.1239.144-.251.3068-.3818.4883-.1309.1815-.2577.3526-.3801.5137-.0983.1216-.1905.2381-.2762.3489-.086.1107-.1744.2286-.2658.3535-.0283.0287-.055.0645-.0803.107s-.052.0779-.0801.107l-1.5941-.6511c.0985-.122.1992-.2448.3027-.3689.1032-.1236.2042-.2469.3025-.3684l-.0042.0104c.0393-.057.0816-.1107.1266-.1611.045-.0508.087-.1045.1266-.1611.2431-.2977.4838-.5945.7223-.8901.2381-.296.4754-.5941.7119-.8947.8393-1.0433,1.6719-2.0745,2.4979-3.0949.826-1.02,1.6655-2.0487,2.5189-3.0862l1.9067.7789c-.0552.6503-.1122,1.3056-.1711,1.9663-.0593.6607-.1205,1.3264-.1838,1.9975-.0608.6644-.1205,1.3268-.1796,1.9875-.0593.6607-.1197,1.3147-.1815,1.9621-.0389.373-.0737.746-.1043,1.1182-.0306.3726-.0618.7469-.0939,1.1228-.0196.2269-.0406.4617-.0624.704-.0221.2419-.0443.4804-.0668.714l-1.6672-.6807.2871-2.3993-3.7298-1.5237ZM86.0915,209.6957l.7581-5.9634-.1251-.0508c-.6022.7993-1.2077,1.5974-1.8168,2.3943-.6093.7964-1.2148,1.5949-1.8168,2.3943l3.0006,1.2256Z" fill="#007a49" stroke-width="0"/><path d="M96.0457,205.2402c2.0362.6016,2.9555,1.9525,2.7575,4.0533-.3143-.0225-.598-.0416-.8514-.0579s-.531-.0296-.8328-.0408c.0316-.3189.0152-.6016-.0489-.8476-.0643-.2456-.158-.465-.281-.6578-.2719-.3776-.7136-.6565-1.3251-.8372-1.7485-.5167-2.9883.4629-3.7194,2.938-.7906,2.6769-.3047,4.2756,1.4584,4.7964.4821.1424.948.1936,1.3978.1545.4496-.0391.8662-.1782,1.2498-.4172l-.0139.0079.494-1.6732-2.0075-.5928.4496-1.5221,3.4754,1.0266-1.2338,4.1769c-.6928.3589-1.3997.5804-2.1209.6644-.7213.0845-1.445.0192-2.1719-.1953-.6836-.2019-1.2585-.5067-1.7248-.9147-.4663-.4076-.8191-.9088-1.0579-1.5033-.2125-.5791-.3154-1.2373-.3087-1.9746.0067-.7377.1343-1.5271.3828-2.3689.2529-.8564.5841-1.5937.9938-2.2123.4095-.6182.8818-1.1182,1.4172-1.5.541-.3485,1.1162-.5679,1.7256-.6578.6093-.0899,1.2415-.0383,1.8963.1553Z" fill="#007a49" stroke-width="0"/><path d="M101.3039,213.2269l-.8934,4.7331-1.6588-.3131,2.0604-10.9151,3.9923.7535c.9804.1848,1.7246.6116,2.2321,1.2802.2569.3389.4157.7102.4769,1.1149.061.4051.0448.8543-.0483,1.3485-.1699.8993-.5396,1.5625-1.1087,1.9896-.2267.1482-.4748.2598-.7446.3347-.2702.0749-.5758.107-.9174.0962l-.0312.1657c.1405.0649.2714.1486.3934.2519.1218.1032.2165.2182.2841.3455.0614.1187.1195.2764.1738.4738.0545.1978.1162.4363.1855.7165.0294.1278.057.2535.0837.3768.0262.1232.0585.2456.0966.3676.0431.1761.0828.3497.1193.5204.0364.1711.0726.3443.1082.5187.0279.1349.0585.2764.0918.4238.0333.1478.0674.2898.1028.4263.0354.1361.0708.2823.1064.438.0354.1557.0708.3014.1064.438l-1.9134-.3609-.2806-1.0608c-.0878-.3451-.1751-.6919-.2619-1.0404-.087-.3485-.1751-.6915-.2639-1.0291-.1147-.403-.2242-.7444-.3279-1.0237-.1039-.2789-.1975-.48-.2812-.6028l-.0021.0108c-.1461-.157-.3135-.2918-.5023-.4038s-.4011-.1903-.637-.2348l-.7411-.1399ZM101.5711,211.8114l1.8137.3422c.6486.1224,1.1291.1257,1.4413.0087.5031-.157.8208-.5858.953-1.286.1975-1.047-.3968-1.7015-1.7827-1.963l-1.8137-.3422-.6116,3.2402Z" fill="#007a49" stroke-width="0"/><path d="M110.781,208.353l-1.3322,11.0279-1.6759-.2027,1.3322-11.0279,1.6759.2027Z" fill="#007a49" stroke-width="0"/><path d="M116.2131,208.587c.9665.052,1.7448.3868,2.3353,1.0046l.0006-.0112c.5783.5645.9636,1.3668,1.1557,2.4063-.1445.03-.2794.0604-.4049.0912-.1257.0308-.2533.0616-.3826.092-.0383.0129-.0801.0237-.1257.0329-.0456.0087-.0874.0196-.1257.0325-.1137.0167-.2696.0533-.4679.1103-.2177-1.2664-.9107-1.9313-2.0795-1.9938-1.6407-.0883-2.5321,1.1865-2.6734,3.8235-.0712,1.3264.0737,2.3314.4355,3.0158.3614.6844.9467,1.0483,1.7558,1.0916,1.2211.0658,2.0433-.6903,2.4661-2.2681.0733.0341.1484.0699.2252.1078s.152.0741.2252.1078c.0358.0321.0776.057.1257.0745.0479.0175.0939.035.138.0525.1241.067.2448.1295.3618.1886.117.0587.2377.1178.3624.1769-.2881,1.0291-.76,1.8414-1.4157,2.4376-.3555.3264-.744.5612-1.1647.704-.4211.1424-.8674.2011-1.3395.1757-.6817-.0362-1.2816-.1982-1.7998-.4854-.5181-.2868-.9538-.7065-1.3075-1.259-.3106-.5125-.5375-1.1145-.6807-1.806s-.1911-1.4792-.1436-2.3635c.0445-.8314.1853-1.5999.4224-2.3047.2367-.7044.5221-1.296.856-1.7739.4095-.4892.8916-.8634,1.4465-1.1228s1.1545-.3722,1.7989-.3376Z" fill="#007a49" stroke-width="0"/><path d="M120.9808,208.9409l1.6975-.0749.2893,6.5325c.0425.9596.224,1.6761.5458,2.1499.1836.2548.4138.4455.6898.5724.276.1266.6087.1811.9988.164.3747-.0167.7007-.1099.9788-.2798.2777-.1703.4904-.3747.6374-.6141.117-.2456.2027-.5516.2581-.9184.055-.3664.072-.786.0512-1.2581l-.2889-6.5325,1.6978-.0754.2764,6.2515c.0375.8472-.0008,1.5941-.1149,2.2411-.1141.6474-.2785,1.1711-.4938,1.5712-.2669.4172-.6336.7415-1.1003.9721-.4667.2311-1.03.3614-1.6894.3905-.7044.0312-1.3177-.0321-1.8389-.189-.5216-.1574-.9484-.4238-1.2802-.7998-.2868-.3701-.5212-.8668-.7023-1.4896-.1815-.6228-.2923-1.3876-.3326-2.2948l-.2796-6.3189Z" fill="#007a49" stroke-width="0"/><path d="M131.5876,208.2086l1.2548,9.2111,4.5833-.6245.2444,1.7956-6.2448.8505-1.4992-11.0063,1.6615-.2265Z" fill="#007a49" stroke-width="0"/><path d="M141.8029,217.7186l-2.0329-9.0483-2.8114.6316-.4022-1.7898,7.2914-1.6382.4022,1.7898-2.811.632,2.0329,9.0479-1.669.3751Z" fill="#007a49" stroke-width="0"/><path d="M144.7438,205.5983l1.6145-.53,2.0387,6.2132c.2993.9126.6674,1.5537,1.1049,1.9234.2456.1957.5187.3172.8185.3651s.6353.0108,1.0058-.1112c.3564-.117.6457-.2948.8676-.5333.2215-.2386.3709-.4929.4484-.7631.0462-.2677.0466-.5853.0008-.9538-.0458-.3676-.1424-.7764-.2898-1.2256l-2.0383-6.2127,1.6145-.53,1.9509,5.9459c.2644.8056.4288,1.5354.4933,2.189.0645.654.047,1.2027-.052,1.6461-.1449.4738-.4109.8847-.7977,1.2327-.3876.348-.8947.6253-1.5221.831-.6703.2198-1.2777.3243-1.8218.3135-.5445-.0108-1.0275-.1524-1.4484-.4251-.3759-.2794-.7352-.6944-1.0779-1.2452s-.6553-1.2577-.9384-2.1203l-1.9717-6.0096Z" fill="#007a49" stroke-width="0"/><path d="M157.3379,207.7789l1.9492,4.4047-1.5437.6832-4.495-10.1578,3.7152-1.644c.9126-.4038,1.7673-.4746,2.5645-.2119.4038.1332.7452.3493,1.0254.6478.2798.2989.5212.6778.7248,1.1374.3705.8372.4421,1.5933.2157,2.2677-.1024.2506-.2435.4833-.4234.6982s-.4134.4147-.7007.5991l.0683.1545c.1524-.0262.3077-.0316.4667-.0158.1586.0158.3022.057.4301.1236.1178.0629.2552.1599.4122.2914.1565.132.343.2935.5591.485.0966.0887.1907.1761.2823.2627s.1878.169.2881.2477c.1353.1207.2669.241.3938.3614s.2548.2419.3834.3655c.0995.0953.2048.1944.316.2968.1107.1028.2198.2003.3264.2927.1062.0924.2182.1928.336.3006.1174.1078.2294.2082.336.3006l-1.7806.7877-.8331-.7144c-.2677-.2344-.5362-.47-.8056-.7082-.2694-.2377-.5362-.47-.801-.6978-.3235-.2669-.607-.4858-.8505-.657-.244-.1711-.4355-.2835-.5737-.3372l.0042.0104c-.2094-.0466-.4234-.0629-.6424-.0479-.2194.015-.4384.0708-.6582.1682l-.6894.3052ZM156.755,206.4613l1.6878-.7469c.6037-.2669,1.0013-.5371,1.1919-.8106.3251-.4147.3439-.9475.0554-1.5995-.4313-.9742-1.2918-1.1761-2.5816-.6053l-1.6878.7469,1.3343,3.0154Z" fill="#007a49" stroke-width="0"/><path d="M166.5619,206.1195c.0358.1861.0845.3872.1457.6024.0608.2152.1162.4209.1665.6166.0341.1528.0683.2973.102.4334.0333.1361.0708.2785.112.428.005.04.0162.0828.0341.1291.0171.0462.0283.0895.0341.1295l-1.5004.8451c-.0346-.1528-.0683-.3081-.1012-.4659-.0329-.1582-.0666-.3135-.1012-.4663l.0054.0096c-.02-.0662-.0358-.1324-.0475-.199s-.0279-.1332-.0479-.1994c-.082-.3751-.1653-.7481-.2494-1.1187-.0837-.3705-.1703-.7419-.259-1.1137-.2964-1.3056-.5878-2.5987-.8747-3.8797-.2868-1.281-.572-2.5779-.8551-3.8909l1.7943-1.0108c.4759.4467.9538.8984,1.4351,1.3551s.965.918,1.4517,1.3843c.4833.46.965.9184,1.4463,1.3747.4813.4571.9563.9105,1.4255,1.361.2681.2623.5391.5208.8118.776.2731.2552.547.5121.8218.7706.1657.1565.3364.3185.5129.4863.1761.1678.3489.3331.5183.4958l-1.5687.8838-1.7023-1.7148-3.5104,1.9779ZM168.9457,202.9679l-4.2036-4.2973-.1178.0662c.2527.9684.5025,1.9388.749,2.9109.246.9721.4954,1.9426.7485,2.9109l2.8239-1.5908Z" fill="#007a49" stroke-width="0"/><path d="M169.6822,193.9904l5.264,7.662,3.8127-2.6191,1.0258,1.4933-5.1948,3.5687-6.2898-9.1557,1.3822-.9492Z" fill="#007a49" stroke-width="0"/><path d="M178.2688,187.5175l1.2415-1.1603,4.4646,4.7773c.6561.7015,1.2598,1.1282,1.8122,1.2794.3052.0741.6041.0695.8963-.0133.2918-.0828.5804-.2577.8655-.5241.2739-.256.4613-.5391.562-.8489s.1295-.6037.0858-.8809c-.0708-.2627-.2044-.5508-.4009-.8655-.1961-.3147-.4559-.6445-.7785-.99l-4.4646-4.7773,1.2415-1.1603,4.2727,4.5716c.5791.6195,1.035,1.2123,1.3693,1.7781.3335.5662.5487,1.0712.6453,1.515.0683.4908,0,.9754-.2044,1.4542-.2048.4788-.5483.9438-1.0304,1.3943-.5154.4817-1.0225.8322-1.5208,1.0516s-.9958.2939-1.4925.224c-.4588-.0949-.9596-.3202-1.5021-.6757-.5429-.3555-1.1241-.8647-1.744-1.5279l-4.3185-4.6212Z" fill="#007a49" stroke-width="0"/><path d="M194.1739,187.4488l-1.0366,1.1861-8.3635-7.3102,1.1478-1.3135,8.7885,2.2411c.0346-.0396.0612-.0812.0795-.1249l-6.0758-5.3106,1.015-1.1611,8.3635,7.3106-1.2519,1.4321-8.4167-2.1703c-.0092.0216-.0196.045-.0312.0699-.0117.0246-.0221.0479-.0312.0695l5.8127,5.0812Z" fill="#007a49" stroke-width="0"/><path d="M191.5332,173.1761l8.8447,6.7198-1.0212,1.3443-8.8447-6.7198,1.0212-1.3443Z" fill="#007a49" stroke-width="0"/><path d="M192.0132,172.6736l.9825-1.4821,9.0533,3.0054c-.2398-.276-.4854-.5537-.7369-.8335-.2515-.2789-.5079-.5683-.7685-.8672-.169-.1932-.3464-.3938-.5321-.6028-.1857-.2086-.3722-.4197-.5587-.6336-.1869-.2136-.3709-.4213-.5525-.6228s-.3505-.3947-.5075-.5795l.0096.0062c-.2923-.3197-.5791-.6403-.861-.9621-.2814-.3218-.5633-.644-.8451-.9659-.1545-.1744-.3156-.3555-.4833-.5433-.1682-.1878-.3264-.3668-.4746-.5375l.9392-1.4163c.5679.6649,1.1286,1.3222,1.6828,1.9734s1.1149,1.3089,1.6828,1.9734c.3901.4567.7823.9147,1.1753,1.3734.3934.4592.7864.9221,1.179,1.3893.2898.3364.5862.6836.8888,1.042.3027.358.5991.7052.8893,1.0416l-1.132,1.7073-11.0304-3.4655Z" fill="#007a49" stroke-width="0"/><path d="M200.114,159.1985l1.4267.7694-2.3614,4.3784,2.5062,1.3514,2.2061-4.0912,1.3968.7535-2.2065,4.0908,2.9421,1.5866,2.4363-4.5167,1.5054.8118-3.2319,5.9929-9.7769-5.2727,3.157-5.8543Z" fill="#007a49" stroke-width="0"/><path d="M207.0882,158.9795l4.4338,1.8826-.6599,1.5537-10.2248-4.341,1.5878-3.7394c.3897-.9188.9654-1.5545,1.7269-1.908.3855-.1786.7827-.2544,1.1911-.2277s.8443.1382,1.3068.3347c.8426.3576,1.4117.8601,1.7073,1.5071.0966.2531.1524.5196.1682.7989.0158.2802-.0179.5853-.1016.9167l.1553.0658c.0933-.1232.2032-.2336.3297-.3306.127-.097.2598-.1649.3984-.2036.1291-.035.2956-.0579.5-.0691.2044-.0108.4509-.0204.7398-.0283.1307-.0012.2594-.0017.3855-.0012s.2527-.005.3797-.0162c.1815-.0042.3593-.0062.5341-.0054.1753.0008.3518.0025.53.005.1378.0012.2823.0017.4338.0004.1511-.0008.2968-.0042.438-.0096.1407-.0054.291-.0087.4509-.0104.1595-.0012.3093-.005.4505-.0104l-.7606,1.7923-1.0966.0483c-.3555.0121-.7127.0233-1.072.0337-.3589.0108-.7127.0233-1.0616.0383-.4184.0262-.7752.0604-1.0704.102-.2948.042-.5112.0908-.649.1461l.0104.0046c-.1848.1091-.3522.244-.5017.4042-.1499.1607-.2714.3514-.3655.5724l-.2943.694ZM205.7622,158.4167l.7211-1.699c.2581-.6074.3634-1.0762.316-1.4063-.0462-.525-.3972-.9267-1.0533-1.2052-.9809-.4163-1.7469.0246-2.2981,1.3231l-.7211,1.699,3.0354,1.2885Z" fill="#007a49" stroke-width="0"/><path d="M211.293,151.3009c1.5525.1923,2.5133-.2943,2.8822-1.46.1699-.5366.179-1.0254.0279-1.4671l.0108.0033c-.0983-.2119-.2231-.3893-.3747-.5316s-.3347-.2477-.5495-.3156c-.3143-.0999-.6028-.1336-.8647-.1028-.2614.0312-.4971.1162-.7061.2544-.1241.1182-.2964.3156-.5179.5916-.2211.2764-.4792.6316-.7739,1.0654-.291.3959-.5699.7306-.8376,1.0037-.2673.2735-.5354.4738-.8039.6012-.6191.3393-1.3755.3672-2.2698.0841-.4076-.1291-.7752-.3476-1.1028-.6561-.3272-.3081-.5816-.6603-.7631-1.0562-.1024-.3235-.154-.6882-.1553-1.0941-.0017-.4055.0645-.8193.1982-1.2415.3106-.98.7998-1.6611,1.4679-2.0437.6682-.3826,1.5437-.4692,2.6261-.2602-.0108.0595-.0271.1291-.0483.2086-.0212.0803-.04.1449-.0558.1948-.0108.06-.0279.1253-.0504.1965-.0229.0716-.0396.1374-.0504.1969l-.0137.0429c-.0196.1116-.0462.2331-.0799.3643-.0337.1307-.0658.2585-.0974.3822-.6066-.0978-1.1053-.045-1.4963.1578-.3905.2027-.6653.5545-.8239,1.0554-.1611.5079-.1686.9421-.0233,1.3031l-.0104-.0033c.1861.3818.4759.6345.8693.759.2073.0658.4088.0687.6049.0087.1961-.0595.388-.174.5749-.343.1245-.1182.3002-.3143.5287-.5883s.4892-.6245.7814-1.0512c.3047-.4151.6041-.7706.8988-1.067.2943-.2964.5828-.5179.8655-.6644.2923-.1274.6332-.1969,1.0221-.2073.3888-.0108.8193.0587,1.2914.2082.5296.1678.9842.4217,1.3643.7623.3797.341.6728.7211.8784,1.1403.1353.3418.2003.7344.194,1.1769-.0067.4425-.0866.9072-.2406,1.3934-.1653.5225-.3913.9684-.6774,1.3381-.2864.3697-.6428.6682-1.0687.8951-.403.2032-.8476.3339-1.3343.3922s-1.0333.0387-1.6399-.0591l.343-1.5674Z" fill="#007a49" stroke-width="0"/><path d="M206.5765,140.8534l10.7848,2.6611-.4047,1.6391-10.7848-2.6611.4047-1.6391Z" fill="#007a49" stroke-width="0"/><path d="M218.318,138.9949l-9.1257-1.6503-.5129,2.8351-1.8052-.3264,1.3301-7.3539,1.8052.3264-.5129,2.8351,9.1257,1.6507-.3043,1.6832Z" fill="#007a49" stroke-width="0"/><path d="M219.5645,130.2085l-4.6744-.4197c-.4996.1965-1.0096.4009-1.5296.6141-.5204.2132-1.0379.4209-1.5533.6232-.2818.1178-.577.2402-.8863.3668-.3085.127-.6074.2448-.8959.3547l-1.8181.7406.1711-1.9055,4.7186-1.8364c-.1778-.1137-.3618-.2261-.5516-.3376-.1894-.1112-.3843-.2281-.5841-.3518-.2502-.1507-.4983-.301-.7448-.4513-.2465-.1499-.4908-.2998-.7336-.45-.1361-.0799-.2806-.1665-.4346-.2594-.1532-.0928-.2943-.179-.423-.2581-.1357-.0799-.2789-.1665-.4288-.259s-.2889-.1786-.4176-.2577l.169-1.8834,6.1066,3.848,4.6632.4188-.1528,1.7036Z" fill="#007a49" stroke-width="0"/><path d="M109.7157,181.2834h-1.9611v-.8027c.8515-.0987,1.4009-.2474,1.6495-.446.2569-.1772.4698-.5685.6386-1.1738l.0595-.1629h.7278v8.9158h-1.1143v-6.3304Z" fill="#007a49" stroke-width="0"/><path d="M113.1777,185.5635h1.1298c.138.7421.5197,1.1833,1.1441,1.3225.1094.0202.2224.0297.3413.0297.9514,0,1.5662-.6101,1.8433-1.8279.1189-.4555.1784-.9811.1784-1.5758-.5946.6446-1.2832.9764-2.0657.9966-.9419,0-1.6745-.352-2.1989-1.0561-.3675-.4947-.5506-1.0941-.5506-1.7982,0-1.0097.3425-1.797,1.0263-2.3619.5245-.4365,1.1583-.6541,1.9016-.6541,1.0109,0,1.7684.3663,2.2739,1.1001.4852.7528.7373,1.797.7576,3.1349v.1332c0,1.5662-.2723,2.7745-.817,3.626-.446.6743-1.0798,1.0846-1.9028,1.2333-.1677.0297-.3413.0452-.5197.0452-.9609,0-1.6792-.396-2.1549-1.1893-.1879-.327-.3175-.7124-.3865-1.1583ZM115.9272,179.6042c-.6446,0-1.1393.2676-1.4866.8027-.2081.3366-.3116.7231-.3116,1.1583,0,.8622.3021,1.4473.9062,1.7541.2379.1284.5209.1927.8467.1927.704,0,1.2285-.2723,1.5758-.817.1974-.3068.2973-.6636.2973-1.0703,0-.7231-.2628-1.282-.7873-1.6792-.308-.2271-.6541-.3413-1.0406-.3413Z" fill="#007a49" stroke-width="0"/><path d="M123.4469,178.698c.8325,0,1.4961.3175,1.9908.9514.5554.7623.8325,1.9563.8325,3.5808,0,2.1989-.5601,3.5808-1.6792,4.1457-.3366.1689-.7183.2521-1.1441.2521-1.4366,0-2.3286-.8812-2.6746-2.6449-.0999-.534-.1487-1.1441-.1487-1.8279,0-1.5948.2771-2.7638.8325-3.5059.4448-.5851,1.0489-.9015,1.8124-.9514h.1784ZM123.4469,179.6494c-1.1595,0-1.7387,1.1738-1.7387,3.5214,0,2.3773.5697,3.5666,1.709,3.5666.9704,0,1.5353-.7825,1.6935-2.3476.0499-.377.0749-.798.0749-1.2642,0-2.3179-.5792-3.4762-1.7387-3.4762Z" fill="#007a49" stroke-width="0"/><path d="M127.5914,185.5635h1.1298c.138.7421.5197,1.1833,1.1441,1.3225.1094.0202.2224.0297.3413.0297.9514,0,1.5662-.6101,1.8433-1.8279.1189-.4555.1784-.9811.1784-1.5758-.5946.6446-1.2832.9764-2.0657.9966-.9419,0-1.6745-.352-2.1989-1.0561-.3675-.4947-.5506-1.0941-.5506-1.7982,0-1.0097.3425-1.797,1.0263-2.3619.5245-.4365,1.1583-.6541,1.9016-.6541,1.0109,0,1.7684.3663,2.2739,1.1001.4852.7528.7373,1.797.7576,3.1349v.1332c0,1.5662-.2723,2.7745-.817,3.626-.446.6743-1.0798,1.0846-1.9028,1.2333-.1677.0297-.3413.0452-.5197.0452-.9609,0-1.6792-.396-2.1549-1.1893-.1879-.327-.3175-.7124-.3865-1.1583ZM130.341,179.6042c-.6446,0-1.1393.2676-1.4866.8027-.2081.3366-.3116.7231-.3116,1.1583,0,.8622.3021,1.4473.9062,1.7541.2379.1284.5209.1927.8467.1927.704,0,1.2285-.2723,1.5758-.817.1974-.3068.2973-.6636.2973-1.0703,0-.7231-.2628-1.282-.7873-1.6792-.308-.2271-.6541-.3413-1.0406-.3413Z" fill="#007a49" stroke-width="0"/><path d="M194.782,124.1647l-2.0486-.1011c.0593-1.1988.0893-2.4054.0893-3.619,0-39.8438-32.4154-72.2596-72.2596-72.2596S48.3039,80.6007,48.3039,120.4446c0,1.1328.0259,2.2592.0778,3.3791l-2.0486.095c-.0532-1.1517-.0799-2.3097-.0799-3.4742,0-40.9749,33.3352-74.3102,74.3098-74.3102s74.3102,33.3352,74.3102,74.3102c0,1.2473-.0307,2.4876-.0913,3.7201Z" fill="#007a49" stroke-width="0"/><path d="M120.5631,194.7544c-31.7274,0-59.9731-20.1451-70.2865-50.1285l1.9394-.6671c10.0283,29.1559,37.495,48.745,68.347,48.745,31.0929,0,58.6278-19.79,68.5172-49.2447l1.9441.653c-10.1701,30.2907-38.4863,50.6423-70.4613,50.6423Z" fill="#007a49" stroke-width="0"/></g></svg>